<svg width="12" height="6" viewBox="0 0 12 6" fill="none" xmlns="http://www.w3.org/2000/svg">
<path d="M11.2579 0.229439C11.1028 0.0825295 10.8925 0 10.6732 0C10.4539 0 10.2436 0.0825295 10.0885 0.229439L5.99501 4.10846L1.90148 0.229439C1.74551 0.086693 1.53662 0.0077061 1.31979 0.00949156C1.10296 0.011277 0.895542 0.0936919 0.742214 0.238985C0.588886 0.384278 0.501916 0.580825 0.500031 0.786293C0.498147 0.991761 0.581502 1.18971 0.732141 1.33751L5.41034 5.77056C5.56542 5.91747 5.77572 6 5.99501 6C6.21429 6 6.4246 5.91747 6.57968 5.77056L11.2579 1.33751C11.4129 1.19055 11.5 0.991266 11.5 0.783473C11.5 0.57568 11.4129 0.376394 11.2579 0.229439Z" fill="white"/>
</svg>
