<svg width="30" height="22" viewBox="0 0 30 22" fill="none" xmlns="http://www.w3.org/2000/svg">
<path d="M0.333344 1.83333C0.333344 1.3471 0.526498 0.880788 0.870315 0.536971C1.21413 0.193155 1.68045 0 2.16668 0H27.8333C28.3196 0 28.7859 0.193155 29.1297 0.536971C29.4735 0.880788 29.6667 1.3471 29.6667 1.83333C29.6667 2.31956 29.4735 2.78588 29.1297 3.1297C28.7859 3.47351 28.3196 3.66667 27.8333 3.66667H2.16668C1.68045 3.66667 1.21413 3.47351 0.870315 3.1297C0.526498 2.78588 0.333344 2.31956 0.333344 1.83333ZM0.333344 11C0.333344 10.5138 0.526498 10.0475 0.870315 9.70364C1.21413 9.35982 1.68045 9.16667 2.16668 9.16667H27.8333C28.3196 9.16667 28.7859 9.35982 29.1297 9.70364C29.4735 10.0475 29.6667 10.5138 29.6667 11C29.6667 11.4862 29.4735 11.9525 29.1297 12.2964C28.7859 12.6402 28.3196 12.8333 27.8333 12.8333H2.16668C1.68045 12.8333 1.21413 12.6402 0.870315 12.2964C0.526498 11.9525 0.333344 11.4862 0.333344 11ZM0.333344 20.1667C0.333344 19.6804 0.526498 19.2141 0.870315 18.8703C1.21413 18.5265 1.68045 18.3333 2.16668 18.3333H27.8333C28.3196 18.3333 28.7859 18.5265 29.1297 18.8703C29.4735 19.2141 29.6667 19.6804 29.6667 20.1667C29.6667 20.6529 29.4735 21.1192 29.1297 21.463C28.7859 21.8068 28.3196 22 27.8333 22H2.16668C1.68045 22 1.21413 21.8068 0.870315 21.463C0.526498 21.1192 0.333344 20.6529 0.333344 20.1667Z" fill="#F9A032"/>
</svg>
